<svg width="53" height="51" viewBox="0 0 53 51" fill="none" xmlns="http://www.w3.org/2000/svg">
<path d="M50.8846 21.3819L42.3041 29.7884L37.4072 24.9821L41.1081 21.3819C41.4027 21.0448 41.3828 20.5426 41.0624 20.2288C40.7425 19.9153 40.23 19.8958 39.8859 20.1844L36.1765 23.7763L33.732 21.3731L42.3041 12.9666C42.6401 12.6353 42.6401 12.1004 42.3041 11.7691C41.966 11.4399 41.42 11.4399 41.0819 11.7691L31.886 20.779C31.7218 20.9382 31.6296 21.1555 31.6296 21.3819C31.6296 21.6082 31.7218 21.8251 31.886 21.9847L33.1167 23.1817L31.886 24.3879C30.431 22.9612 28.1525 22.7339 26.4343 23.8443L25.7584 23.1817C24.9463 22.3882 23.8459 21.9424 22.6986 21.942C22.1565 21.942 21.6186 22.0399 21.1124 22.231L19.6304 20.779L20.2457 20.1844C20.4099 20.0248 20.5022 19.8079 20.5022 19.5815C20.5022 19.3552 20.4099 19.1379 20.2457 18.9787L11.6393 10.5721C11.2995 10.2412 10.7502 10.2433 10.4129 10.5763C10.0752 10.9092 10.0773 11.447 10.4171 11.7779L18.3823 19.5815L17.767 20.1757L13.4333 24.3792L10.374 21.3731C10.211 21.2123 9.98968 21.1219 9.75861 21.1219C9.52754 21.1219 9.30578 21.2123 9.14327 21.3731C8.80682 21.7044 8.80682 22.2393 9.14327 22.5706L12.2111 25.5766L10.9804 26.7737L9.8276 28.0221L1.86241 20.1844C1.6999 20.0235 1.47813 19.9331 1.24706 19.9331C1.01599 19.9331 0.794655 20.0235 0.63172 20.1844C0.295693 20.5157 0.295693 21.0506 0.63172 21.3819L9.21225 29.7884C9.37603 29.9472 9.59737 30.0359 9.8276 30.0347C10.0582 30.0359 10.2796 29.9472 10.4434 29.7884L11.6393 28.591L12.8611 29.7884C11.1696 31.4465 11.1696 34.1337 12.8611 35.7918L14.4909 37.3628C14.6534 37.5237 14.8752 37.6141 15.1063 37.6141C15.3373 37.6141 15.5587 37.5237 15.7216 37.3628C16.0576 37.0315 16.0576 36.4967 15.7216 36.1654L14.1181 34.5948C13.6284 34.1167 13.3533 33.4674 13.3533 32.7903C13.3533 32.1128 13.6284 31.4635 14.1181 30.9858L14.725 30.3913L20.861 24.3792C21.8911 23.4218 23.5061 23.4218 24.5362 24.3792L30.0485 29.7797C30.343 30.1168 30.3231 30.6189 30.0032 30.9328C29.6828 31.2462 29.1703 31.2657 28.8267 30.9771L24.8307 27.0627C24.4888 26.7297 23.9356 26.7314 23.5958 27.0668C23.256 27.4022 23.2577 27.9437 23.6 28.2767L27.5955 32.1916C28.3387 32.9251 29.4602 33.1465 30.4348 32.7517C31.4099 32.357 32.0447 31.4245 32.0422 30.3913C32.0413 29.7158 31.7671 29.0682 31.2791 28.591L27.7085 25.0923C28.7039 24.6504 29.8737 24.8452 30.6638 25.5849L38.0225 32.7945C38.5071 33.2729 38.7784 33.9206 38.7767 34.5948C38.7784 35.2689 38.5071 35.9162 38.0225 36.3947L35.5696 38.7978L33.0562 41.252L31.2791 43.0013L26.3737 47.8073C26.0356 48.1365 25.4897 48.1365 25.1515 47.8073C24.8155 47.4764 24.8155 46.9415 25.1515 46.6102L30.7074 41.1923C30.9545 40.985 31.0625 40.6591 30.9863 40.3489C30.9101 40.0388 30.6629 39.7967 30.3464 39.722C30.0294 39.6474 29.6972 39.7527 29.4852 39.9953L23.964 45.3958C23.6204 45.6844 23.1078 45.6649 22.7875 45.3514C22.4675 45.0375 22.4476 44.5354 22.7422 44.1983L28.2545 38.7978C28.4187 38.6386 28.5109 38.4214 28.5109 38.195C28.5109 37.9686 28.4187 37.7517 28.2545 37.5921C27.9163 37.2629 27.3704 37.2629 27.0322 37.5921L21.5111 43.0013C21.1734 43.3305 20.6274 43.3305 20.2893 43.0013C20.1251 42.8417 20.0328 42.6248 20.0328 42.3984C20.0328 42.1721 20.1251 41.9548 20.2893 41.7956L25.8016 36.3947C25.9658 36.2354 26.058 36.0182 26.058 35.7918C26.058 35.5654 25.9658 35.3486 25.8016 35.1889C25.4634 34.8597 24.9175 34.8597 24.5793 35.1889L19.0586 40.5981C18.7188 40.9286 18.1694 40.9269 17.8321 40.594C17.4944 40.261 17.4965 39.7229 17.8364 39.3924L24.5015 32.8707C24.8413 32.5378 24.8413 31.998 24.5015 31.665C24.1616 31.3321 23.6106 31.3321 23.2708 31.665L16.571 38.212C15.557 39.2067 15.557 40.8179 16.571 41.8126C17.0187 42.2604 17.6218 42.5274 18.2609 42.5597C18.3383 43.8525 19.3938 44.8829 20.7138 44.9542C20.787 46.2507 21.8437 47.2857 23.1667 47.3574C23.1916 47.9959 23.4608 48.6025 23.9208 49.0557C24.7021 49.8194 25.8904 50.0172 26.885 49.5483L27.5955 50.2531C28.3256 50.9688 29.4191 51.1935 30.3815 50.8253C31.3435 50.4571 31.9918 49.5661 32.0333 48.5548C32.6863 48.5353 33.3071 48.2708 33.7668 47.816C34.217 47.3731 34.4854 46.784 34.5209 46.1599C35.8443 46.0886 36.9006 45.0533 36.9738 43.7568C38.006 43.7165 38.9155 43.0809 39.2913 42.1385C39.6675 41.1956 39.4382 40.1246 38.7073 39.4094L38.0919 38.8148L39.3226 37.6091C40.1326 36.8134 40.5876 35.7354 40.588 34.6113C40.5677 33.7709 40.293 32.9553 39.7992 32.2679L41.1081 30.9858L41.7235 31.5887C42.0616 31.9179 42.6076 31.9179 42.9457 31.5887L52.1153 22.5789C52.4514 22.248 52.4514 21.7127 52.1153 21.3819C51.9528 21.221 51.7311 21.1306 51.5 21.1306C51.2689 21.1306 51.0476 21.221 50.8846 21.3819ZM12.8874 27.3852L18.4086 21.9847L19.6304 23.1817L14.1181 28.591L12.8874 27.3852ZM30.0485 49.0047C29.7103 49.3339 29.1644 49.3339 28.8267 49.0047L28.2113 48.4018L29.442 47.2044L30.0485 47.799C30.2127 47.9582 30.3049 48.1754 30.3049 48.4018C30.3049 48.6282 30.2127 48.8455 30.0485 49.0047ZM32.5014 46.6015C32.1632 46.9307 31.6173 46.9307 31.2791 46.6015L30.7074 45.9987L31.3227 45.3958L31.9292 44.8012L32.545 45.3958C32.7087 45.5554 32.801 45.7723 32.801 45.9987C32.801 46.225 32.7087 46.4423 32.545 46.6015H32.5014ZM34.9543 44.1983C34.6161 44.5276 34.0702 44.5276 33.732 44.1983L33.1167 43.5955L34.3389 42.3984L34.9543 43.0013C35.2903 43.3326 35.2903 43.8675 34.9543 44.1983ZM37.4072 41.7956C37.2442 41.956 37.0229 42.0464 36.7918 42.0464C36.5608 42.0464 36.339 41.956 36.1765 41.7956L35.5696 41.1923L36.7745 39.9953L37.3898 40.5981C37.7305 40.9245 37.7386 41.4597 37.4072 41.7956ZM38.629 30.9858L33.1167 25.5849L34.3389 24.3879L39.8601 29.7884L38.629 30.9858Z" fill="#FFBB01"/>
<path d="M16.8401 13.5865H35.9082C36.3868 13.5865 36.7749 13.2063 36.7749 12.7373V0.849155C36.7749 0.380213 36.3868 0 35.9082 0H16.8401C16.3615 0 15.9734 0.380213 15.9734 0.849155V12.7373C15.9734 13.2063 16.3615 13.5865 16.8401 13.5865ZM17.7069 10.1899C18.6642 10.1899 19.4403 10.9503 19.4403 11.8882H17.7069V10.1899ZM35.0414 11.8882H33.308C33.308 10.9503 34.0841 10.1899 35.0414 10.1899V11.8882ZM35.0414 3.39662C34.0841 3.39662 33.308 2.6362 33.308 1.69831H35.0414V3.39662ZM35.0414 5.09493V8.49155C33.1264 8.49155 31.5745 10.0124 31.5745 11.8882H21.1738C21.1738 10.0124 19.6215 8.49155 17.7069 8.49155V5.09493C19.6215 5.09493 21.1738 3.57408 21.1738 1.69831H31.5745C31.5745 3.57408 33.1264 5.09493 35.0414 5.09493ZM17.7069 1.69831H19.4403C19.4403 2.6362 18.6642 3.39662 17.7069 3.39662V1.69831Z" fill="#FFBB01"/>
<path d="M26.3734 10.1898C28.2878 10.1898 29.8399 8.669 29.8399 6.79323C29.8399 4.91746 28.2878 3.39661 26.3734 3.39661C24.4587 3.39661 22.907 4.91746 22.907 6.79323C22.907 8.669 24.4587 10.1898 26.3734 10.1898ZM26.3734 5.09492C27.3306 5.09492 28.1067 5.85534 28.1067 6.79323C28.1067 7.73111 27.3306 8.49154 26.3734 8.49154C25.4163 8.49154 24.6402 7.73111 24.6402 6.79323C24.6402 5.85534 25.4163 5.09492 26.3734 5.09492Z" fill="#FFBB01"/>
<path d="M33.3075 6.79319C33.3075 7.26213 32.9195 7.64234 32.4409 7.64234C31.9623 7.64234 31.5743 7.26213 31.5743 6.79319C31.5743 6.32424 31.9623 5.94403 32.4409 5.94403C32.9195 5.94403 33.3075 6.32424 33.3075 6.79319Z" fill="#FFBB01"/>
<path d="M21.1734 6.79319C21.1734 7.26213 20.7853 7.64234 20.3067 7.64234C19.8282 7.64234 19.4401 7.26213 19.4401 6.79319C19.4401 6.32424 19.8282 5.94403 20.3067 5.94403C20.7853 5.94403 21.1734 6.32424 21.1734 6.79319Z" fill="#FFBB01"/>
<path d="M52.2286 5.47712L48.7617 0.382182C48.6005 0.147089 48.3309 0.00653076 48.0423 0.00653076C47.7536 0.00653076 47.4836 0.147089 47.3228 0.382182L43.8559 5.47712C43.7611 5.61519 43.7099 5.77772 43.7086 5.94398V9.34061C43.7086 9.80955 44.0967 10.1898 44.5753 10.1898C45.054 10.1898 45.4421 9.80955 45.4421 9.34061V6.19857L48.0423 2.37737L50.6424 6.19857V15.2847C50.6424 15.7536 51.0305 16.1339 51.5092 16.1339C51.9878 16.1339 52.3759 15.7536 52.3759 15.2847V5.94398C52.3746 5.77772 52.3234 5.61519 52.2286 5.47712Z" fill="#FFBB01"/>
<path d="M48.9088 11.8881V6.79319C48.9088 6.32424 48.5208 5.94403 48.0422 5.94403C47.5636 5.94403 47.1756 6.32424 47.1756 6.79319V11.8881C47.1756 12.3571 47.5636 12.7373 48.0422 12.7373C48.5208 12.7373 48.9088 12.3571 48.9088 11.8881Z" fill="#FFBB01"/>
<path d="M1.23869 7.64232H2.10542V17.8322C2.10542 18.3011 2.4935 18.6813 2.97215 18.6813C3.4508 18.6813 3.83888 18.3011 3.83888 17.8322V6.79316C3.83888 6.32422 3.4508 5.94401 2.97215 5.94401H2.9201L5.57234 2.3098L8.22458 5.94401H8.17252C7.69388 5.94401 7.3058 6.32422 7.3058 6.79316V8.49147C7.3058 8.96042 7.69388 9.34063 8.17252 9.34063C8.65117 9.34063 9.03925 8.96042 9.03925 8.49147V7.64232H9.90598C10.2297 7.64066 10.5256 7.46278 10.6733 7.18042C10.821 6.89848 10.7956 6.5589 10.6081 6.30059L6.27444 0.356499C6.11108 0.135917 5.85038 0.00531006 5.57234 0.00531006C5.29429 0.00531006 5.03317 0.135917 4.87024 0.356499L0.53659 6.30059C0.348686 6.5589 0.323717 6.89848 0.471416 7.18042C0.619116 7.46278 0.914938 7.64066 1.23869 7.64232Z" fill="#FFBB01"/>
<path d="M5.57166 11.8882V14.4357C5.57166 14.9046 5.95969 15.2848 6.43828 15.2848C6.91686 15.2848 7.3049 14.9046 7.3049 14.4357V11.8882C7.3049 11.4193 6.91686 11.0391 6.43828 11.0391C5.95969 11.0391 5.57166 11.4193 5.57166 11.8882Z" fill="#FFBB01"/>
</svg>
