<svg width="53" height="51" viewBox="0 0 53 51" fill="none" xmlns="http://www.w3.org/2000/svg">
<path d="M44.9176 37.4369L41.7981 40.4455L39.9298 38.6353C39.5842 38.3021 39.024 38.3021 38.6785 38.6353C38.333 38.9686 38.333 39.5089 38.6785 39.8421L41.1724 42.2473C41.3377 42.4083 41.5631 42.4988 41.7981 42.4988C42.033 42.4988 42.258 42.4083 42.4237 42.2473L46.2042 38.6353C46.4555 38.4279 46.5652 38.1017 46.4877 37.7913C46.4103 37.4805 46.159 37.2381 45.8371 37.1634C45.5153 37.0887 45.1771 37.1945 44.9615 37.4369H44.9176Z" fill="#FFBB01"/>
<path d="M46.2051 31.5305V28.8958C46.2051 28.4264 45.8105 28.0459 45.3238 28.0459H42.6798V27.196C42.6798 25.788 43.8637 24.6464 45.3238 24.6464C45.8105 24.6464 46.2051 24.2659 46.2051 23.7965C46.2051 23.3272 45.8105 22.9467 45.3238 22.9467C42.8902 22.9467 40.9171 24.8493 40.9171 27.196V28.0459H38.2731C37.7864 28.0459 37.3918 28.4264 37.3918 28.8958V31.5305C32.8719 33.5282 30.4057 38.2921 31.4656 42.976C32.5259 47.6602 36.8263 51 41.7985 51C46.7702 51 51.071 47.6602 52.1313 42.976C53.1913 38.2921 50.725 33.5282 46.2051 31.5305ZM42.6798 49.2928V48.4429C42.6798 47.9736 42.2852 47.593 41.7985 47.593C41.3117 47.593 40.9171 47.9736 40.9171 48.4429V49.2928C36.7144 48.9043 33.3879 45.6966 32.9851 41.6439H33.8665C34.3532 41.6439 34.7478 41.2634 34.7478 40.794C34.7478 40.3247 34.3532 39.9441 33.8665 39.9441H32.9851C33.3173 36.77 35.4647 34.0427 38.5464 32.8816C38.8855 32.7555 39.1093 32.4418 39.1106 32.0911V29.7457H44.3986V32.0911C44.3994 32.4418 44.6232 32.7555 44.9623 32.8816C48.0784 34.0174 50.2641 36.7496 50.6118 39.9441H49.7305C49.2438 39.9441 48.8491 40.3247 48.8491 40.794C48.8491 41.2634 49.2438 41.6439 49.7305 41.6439H50.6118C50.209 45.6966 46.8825 48.9043 42.6798 49.2928Z" fill="#FFBB01"/>
<path d="M28.7633 44.1935C28.5782 44.1935 4.78221 44.1935 4.78221 44.1935C3.32207 44.1935 2.1382 43.0519 2.1382 41.6439V14.4479H47.9676V30.1365C47.9676 30.6059 48.3622 30.9864 48.8489 30.9864C49.3356 30.9864 49.7303 30.6059 49.7303 30.1365V8.49875C49.7303 6.15205 47.7572 4.24938 45.3236 4.24938H43.5609V3.3995C43.5609 2.93016 43.1663 2.54963 42.6796 2.54963C42.1929 2.54963 41.7982 2.93016 41.7982 3.3995V6.799C41.7982 7.73768 41.009 8.49875 40.0356 8.49875C39.0622 8.49875 38.2729 7.73768 38.2729 6.799V3.3995C38.2729 2.46082 39.0622 1.69975 40.0356 1.69975C40.5223 1.69975 40.9169 1.31922 40.9169 0.849875C40.9169 0.380535 40.5223 0 40.0356 0C38.0887 0 36.5102 1.52214 36.5102 3.3995V4.24938H28.5782V3.3995C28.5782 2.93016 28.1836 2.54963 27.6969 2.54963C27.2102 2.54963 26.8156 2.93016 26.8156 3.3995V6.799C26.8156 7.73768 26.0263 8.49875 25.0529 8.49875C24.0795 8.49875 23.2902 7.73768 23.2902 6.799V3.3995C23.2902 2.46082 24.0795 1.69975 25.0529 1.69975C25.5396 1.69975 25.9342 1.31922 25.9342 0.849875C25.9342 0.380535 25.5396 0 25.0529 0C23.106 0 21.5276 1.52214 21.5276 3.3995V4.24938H13.5955V3.3995C13.5955 2.93016 13.2009 2.54963 12.7142 2.54963C12.2275 2.54963 11.8329 2.93016 11.8329 3.3995V6.799C11.8329 7.73768 11.0436 8.49875 10.0702 8.49875C9.09678 8.49875 8.30754 7.73768 8.30754 6.799V3.3995C8.30754 2.46082 9.09678 1.69975 10.0702 1.69975C10.5569 1.69975 10.9515 1.31922 10.9515 0.849875C10.9515 0.380535 10.5569 0 10.0702 0C8.12336 0 6.54487 1.52214 6.54487 3.3995V4.24938H4.78221C2.34864 4.24938 0.375534 6.15205 0.375534 8.49875V41.6439C0.375534 43.9906 2.34864 45.8933 4.78221 45.8933H25.0529C29.6799 45.8933 29.6799 45.8933 29.6799 45.0434C29.6812 44.8176 29.5891 44.6002 29.4243 44.44C29.2496 44.2724 29.0099 44.1827 28.7633 44.1935ZM4.78221 5.94913H6.54487V6.799C6.54487 8.67636 8.12336 10.1985 10.0702 10.1985C12.0171 10.1985 13.5955 8.67636 13.5955 6.799V5.94913H21.5276V6.799C21.5276 8.67636 23.106 10.1985 25.0529 10.1985C26.9997 10.1985 28.5782 8.67636 28.5782 6.799V5.94913H36.5102V6.799C36.5102 8.67636 38.0887 10.1985 40.0356 10.1985C41.9824 10.1985 43.5609 8.67636 43.5609 6.799V5.94913H45.3236C46.7837 5.94913 47.9676 7.09073 47.9676 8.49875V12.7481H2.1382V8.49875C2.1382 7.09073 3.32207 5.94913 4.78221 5.94913Z" fill="#FFBB01"/>
<path d="M16.2398 17.8474C16.2398 17.378 15.8452 16.9975 15.3584 16.9975H8.30777C7.82106 16.9975 7.42644 17.378 7.42644 17.8474V24.6464C7.42644 25.1157 7.82106 25.4963 8.30777 25.4963H15.3584C15.8452 25.4963 16.2398 25.1157 16.2398 24.6464V17.8474ZM14.4771 23.7965H9.18911V18.6972H14.4771V23.7965Z" fill="#FFBB01"/>
<path d="M15.3584 30.5956C15.8452 30.5956 16.2398 30.215 16.2398 29.7457C16.2398 29.2763 15.8452 28.8958 15.3584 28.8958H8.30777C7.82106 28.8958 7.42644 29.2763 7.42644 29.7457V36.5447C7.42644 37.014 7.82106 37.3946 8.30777 37.3946H15.3584C15.8452 37.3946 16.2398 37.014 16.2398 36.5447V33.1452C16.2398 32.6758 15.8452 32.2953 15.3584 32.2953C14.8717 32.2953 14.4771 32.6758 14.4771 33.1452V35.6948H9.18911V30.5956H15.3584Z" fill="#FFBB01"/>
<path d="M20.6465 28.8958C20.1598 28.8958 19.7652 29.2763 19.7652 29.7457V36.5447C19.7652 37.014 20.1598 37.3946 20.6465 37.3946H27.6972C28.1839 37.3946 28.5785 37.014 28.5785 36.5447V29.7457C28.5785 29.2763 28.1839 28.8958 27.6972 28.8958H20.6465ZM26.8158 35.6948H21.5278V30.5956H26.8158V35.6948Z" fill="#FFBB01"/>
<path d="M40.0358 23.7965C40.5225 23.7965 40.9171 23.416 40.9171 22.9466V17.8474C40.9171 17.378 40.5225 16.9975 40.0358 16.9975H32.9851C32.4984 16.9975 32.1038 17.378 32.1038 17.8474V24.6464C32.1038 25.1157 32.4984 25.4963 32.9851 25.4963C33.4719 25.4963 33.8665 25.1157 33.8665 24.6464V18.6972H39.1545V22.9466C39.1545 23.416 39.5491 23.7965 40.0358 23.7965Z" fill="#FFBB01"/>
<path d="M28.3229 17.244C28.1572 17.083 27.9322 16.9926 27.6972 16.9926C27.4622 16.9926 27.2367 17.083 27.0715 17.244L24.1719 20.0485L21.2722 17.244C20.9267 16.9108 20.3664 16.9108 20.0208 17.244C19.6752 17.5773 19.6752 18.1176 20.0208 18.4508L22.929 21.2469L20.0208 24.043C19.8538 24.2024 19.76 24.4198 19.76 24.6464C19.76 24.873 19.8538 25.0904 20.0208 25.2498C20.1861 25.4108 20.4116 25.5013 20.6465 25.5013C20.8815 25.5013 21.1066 25.4108 21.2722 25.2498L24.1719 22.4454L27.0715 25.2498C27.2367 25.4108 27.4622 25.5013 27.6972 25.5013C27.9322 25.5013 28.1572 25.4108 28.3229 25.2498C28.4899 25.0904 28.5837 24.873 28.5837 24.6464C28.5837 24.4198 28.4899 24.2024 28.3229 24.043L25.4147 21.2469L28.3229 18.4508C28.4899 18.2914 28.5837 18.074 28.5837 17.8474C28.5837 17.6208 28.4899 17.4034 28.3229 17.244Z" fill="#FFBB01"/>
</svg>
