<svg width="100" height="28" viewBox="0 0 100 28" fill="none" xmlns="http://www.w3.org/2000/svg">
<path fill-rule="evenodd" clip-rule="evenodd" d="M21.2186 0.00146484H2.81527C1.26368 0.00146484 0 1.27004 0 2.82766V21.3024C0 22.8605 1.26368 24.1286 2.81527 24.1286H18.3894L17.6617 21.6054L19.4195 23.2325L21.0811 24.7626L24.0478 27.3408V2.82766C24.0339 1.27004 22.7707 0.00146484 21.2186 0.00146484V0.00146484ZM15.9173 17.8556C15.9173 17.8556 15.4232 17.2626 15.0108 16.7526C16.8099 16.2425 17.4968 15.126 17.4968 15.126C16.9334 15.498 16.398 15.76 15.9173 15.939C15.2304 16.229 14.5714 16.408 13.9259 16.5321C12.6074 16.7801 11.399 16.7116 10.369 16.5181C9.58596 16.3665 8.91302 16.16 8.35016 15.9255C8.03436 15.8015 7.69068 15.6495 7.34749 15.4565C7.30615 15.429 7.26481 15.4155 7.22396 15.3875C7.19656 15.374 7.18262 15.36 7.16868 15.36C6.92162 15.2225 6.78414 15.126 6.78414 15.126C6.78414 15.126 7.44362 16.215 9.18796 16.7391C8.77555 17.2626 8.26749 17.8692 8.26749 17.8692C5.23255 17.7726 4.07895 15.7875 4.07895 15.7875C4.07895 11.3892 6.05641 7.81849 6.05641 7.81849C8.03388 6.34339 9.90176 6.38488 9.90176 6.38488L10.0392 6.55039C7.56715 7.25344 6.44095 8.34252 6.44095 8.34252C6.44095 8.34252 6.74329 8.17701 7.25135 7.95649C8.72076 7.30845 9.8883 7.14294 10.369 7.08793C10.4512 7.07394 10.5199 7.06043 10.6026 7.06043C11.4399 6.94993 12.3878 6.92243 13.3765 7.03293C14.6815 7.18444 16.0822 7.57047 17.5102 8.34252C17.5102 8.34252 16.4254 7.30845 14.0908 6.6054L14.283 6.38488C14.283 6.38488 16.1644 6.34339 18.1284 7.81849C18.1284 7.81849 20.1059 11.3897 20.1059 15.7875C20.1059 15.7735 18.9522 17.7591 15.9173 17.8556ZM36.6552 5.90235H32.0956V11.0447L35.131 13.7884V8.79755H36.7514C37.7814 8.79755 38.2895 9.29407 38.2895 10.0936V13.9124C38.2895 14.7119 37.8088 15.25 36.7514 15.25H32.0817V18.1587H36.6413C39.086 18.1727 41.3797 16.9456 41.3797 14.1329V10.0246C41.3932 7.15694 39.0999 5.90235 36.6552 5.90235ZM60.5516 14.1329V9.91413C60.5516 8.39753 63.2713 8.053 64.0951 9.5696L66.6085 8.54952C65.6193 6.37089 63.8202 5.73684 62.3234 5.73684C59.8787 5.73684 57.4619 7.15694 57.4619 9.91413V14.1329C57.4619 16.9181 59.8787 18.3107 62.2686 18.3107C63.8067 18.3107 65.6472 17.5521 66.6633 15.567L63.9716 14.3259C63.3121 16.022 60.5516 15.6085 60.5516 14.1329ZM52.2428 10.4932C51.2954 10.2866 50.6633 9.94211 50.6225 9.34908C50.6773 7.92899 52.861 7.87398 54.1381 9.23858L56.1569 7.68097C54.8937 6.13686 53.4652 5.72285 51.9958 5.72285C49.7573 5.72285 47.5871 6.99143 47.5871 9.39058C47.5871 11.7202 49.3728 12.9748 51.3363 13.2783C52.339 13.4163 53.4517 13.8159 53.4238 14.5054C53.3416 15.815 50.6499 15.746 49.4276 14.2574L47.4775 16.091C48.6171 17.5661 50.1692 18.3107 51.6247 18.3107C53.8636 18.3107 56.3492 17.0146 56.4453 14.6434C56.5828 11.6512 54.413 10.8932 52.2428 10.4932ZM43.0414 18.1452H46.1177V5.90235H43.0414V18.1452ZM94.9136 5.90235H90.354V11.0447L93.3889 13.7884V8.79755H95.0098C96.0398 8.79755 96.5479 9.29407 96.5479 10.0936V13.9124C96.5479 14.7119 96.0672 15.25 95.0098 15.25H90.3401V18.1587H94.9136C97.3578 18.1727 99.6516 16.9456 99.6516 14.1329V10.0246C99.6516 7.15694 97.3578 5.90235 94.9136 5.90235ZM72.5414 5.73684C70.0141 5.73684 67.5011 7.11544 67.5011 9.94211V14.1194C67.5011 16.9181 70.028 18.3242 72.5688 18.3242C75.0957 18.3242 77.6091 16.9181 77.6091 14.1194V9.94211C77.6091 7.12943 75.0683 5.73684 72.5414 5.73684ZM74.5189 14.1194C74.5189 15.0015 73.5302 15.4565 72.5549 15.4565C71.5661 15.4565 70.5774 15.0295 70.5774 14.1194V9.94211C70.5774 9.04557 71.5387 8.56304 72.5001 8.56304C73.5027 8.56304 74.5189 8.99056 74.5189 9.94211V14.1194ZM88.651 9.94211C88.5823 7.07442 86.6322 5.91586 84.1188 5.91586H79.2434V18.1587H82.361V14.2709H82.9104L85.7391 18.1587H89.5849L86.2611 13.9539C87.7305 13.4849 88.651 12.2028 88.651 9.94163V9.94211ZM84.1736 11.5962H82.361V8.79755H84.1736C86.1102 8.79755 86.1102 11.5962 84.1736 11.5962Z" fill="white"/>
</svg>
