<svg width="18" height="19" viewBox="0 0 18 19" fill="none" xmlns="http://www.w3.org/2000/svg">
<path d="M3.30884 18.0571H8.92308V11.9182H6.90599V9.89434H8.92308V7.36455C8.92308 5.96961 10.0542 4.83477 11.4444 4.83477H13.9658V6.85859H11.9487C11.3926 6.85859 10.9402 7.31251 10.9402 7.87051V9.89434H13.8748L13.5386 11.9182H10.9402V18.0571H15.4786C16.8689 18.0571 18 16.9223 18 15.5273V3.31689C18 1.92196 16.8689 0.787109 15.4786 0.787109H3.30884C1.91854 0.787109 0.787476 1.92196 0.787476 3.31689V15.5273C0.787476 16.9223 1.91854 18.0571 3.30884 18.0571ZM1.79602 3.31689C1.79602 2.47996 2.47469 1.79902 3.30884 1.79902H15.4786C16.3128 1.79902 16.9915 2.47996 16.9915 3.31689V15.5273C16.9915 16.3643 16.3128 17.0452 15.4786 17.0452H11.9487V12.9301H14.393L15.0654 8.88242H11.9487V7.87051H14.9744V3.82285H11.4444C9.49801 3.82285 7.91454 5.41161 7.91454 7.36455V8.88242H5.89744V12.9301H7.91454V17.0452H3.30884C2.47469 17.0452 1.79602 16.3643 1.79602 15.5273V3.31689Z" fill="white"/>
</svg>
