<svg width="18" height="18" viewBox="0 0 18 18" fill="none" xmlns="http://www.w3.org/2000/svg">
<path d="M8.79095 0C4.0609 0 0.184692 3.92288 0.184692 8.66873C0.184692 13.387 4.02557 17.27 8.79095 17.27C13.5504 17.27 17.3972 13.3928 17.3972 8.66873C17.3972 3.92288 13.521 0 8.79095 0ZM10.3038 16.1063C9.81972 16.2075 9.30534 16.2581 8.79095 16.2581C8.27657 16.2581 7.76218 16.2075 7.27813 16.1063V13.7384C7.27813 13.1717 7.42942 12.9694 7.63113 12.6961C7.73382 12.5783 7.7958 12.4726 8.25635 11.7754L7.47984 11.6539C5.48284 11.3604 4.69623 10.3181 4.38355 9.50857C3.98014 8.4259 4.19196 7.06983 4.91816 6.20983C5.02913 6.0782 5.11987 5.85553 5.03924 5.62284C4.88783 5.15734 4.90805 4.41869 5.00891 4.13528C5.54364 4.21196 6.09349 4.5963 6.55206 4.87405C6.76336 4.99778 6.87419 4.9651 6.97557 4.97524C7.34406 4.8983 7.91885 4.71212 8.80107 4.71212C9.34565 4.71212 9.92058 4.79302 10.4854 4.95495C10.5864 4.95258 10.7487 5.03875 11.03 4.87405C11.5093 4.58102 12.0405 4.20985 12.573 4.13528C12.6739 4.41869 12.6941 5.15734 12.5428 5.62284C12.462 5.85553 12.5528 6.0782 12.6639 6.20983C13.39 7.06996 13.6018 8.4259 13.1984 9.50857C12.8857 10.3181 12.0991 11.3604 10.1021 11.6539L9.32556 11.7754C9.8016 12.4961 9.85177 12.5825 9.95091 12.6961C10.1525 12.9694 10.3038 13.1717 10.3038 13.7384V16.1063ZM11.3123 15.8129V13.7384C11.3123 13.1616 11.1912 12.7771 11.0298 12.4937C12.5629 12.0789 13.6522 11.1681 14.1362 9.86274C14.6506 8.48664 14.4187 6.84729 13.5613 5.71389C13.7127 5.03599 13.7127 3.95318 13.3496 3.44723C13.1882 3.22469 12.9663 3.1032 12.684 3.1032C12.6739 3.1032 12.6739 3.1032 12.6739 3.1032C11.8918 3.14563 11.2763 3.54078 10.6164 3.94304C10.0113 3.78111 9.39608 3.70021 8.78084 3.70021C8.15562 3.70021 7.53027 3.79125 6.9757 3.94304C6.28101 3.52273 5.67142 3.14458 4.86773 3.1032C4.6156 3.1032 4.39367 3.22469 4.23227 3.44723C3.8693 3.95318 3.8693 5.03599 4.02058 5.71389C3.16319 6.84729 2.93127 8.49665 3.44566 9.86274C3.92971 11.1681 5.01902 12.0789 6.55206 12.4937C6.42691 12.7134 6.32789 12.9968 6.28889 13.3803C5.97924 13.4874 5.71069 13.5224 5.46091 13.4487C5.19748 13.3706 4.99223 13.1941 4.81389 12.8932C4.41336 12.2181 3.73115 11.6669 2.95439 11.7386L3.04303 12.7466C3.40272 12.7135 3.7607 13.0953 3.94665 13.4101C4.25341 13.9284 4.66668 14.2684 5.17529 14.4191C5.55284 14.5307 5.89795 14.5281 6.26959 14.4485V15.8129C3.33469 14.7807 1.19324 11.9676 1.19324 8.66873C1.19324 4.47943 4.6156 1.01191 8.79095 1.01191C12.9663 1.01191 16.3887 4.47943 16.3887 8.66873C16.3887 11.9676 14.2472 14.7807 11.3123 15.8129Z" fill="white"/>
</svg>
