<svg width="19" height="18" viewBox="0 0 19 18" fill="none" xmlns="http://www.w3.org/2000/svg">
<path d="M3.44126 17.4615H15.611C17.0013 17.4615 18.1324 16.3267 18.1324 14.9317V2.72131C18.1324 1.32637 17.0013 0.191528 15.611 0.191528H3.44126C2.05096 0.191528 0.919891 1.32637 0.919891 2.72131V14.9317C0.919891 16.3267 2.05096 17.4615 3.44126 17.4615ZM1.92844 2.72131C1.92844 1.88438 2.60711 1.20344 3.44126 1.20344H15.611C16.4452 1.20344 17.1239 1.88438 17.1239 2.72131V14.9317C17.1239 15.7687 16.4452 16.4496 15.611 16.4496H3.44126C2.60711 16.4496 1.92844 15.7687 1.92844 14.9317V2.72131Z" fill="white"/>
<path d="M9.52615 13.3802C12.0286 13.3802 14.0646 11.3374 14.0646 8.82657C14.0646 6.31575 12.0286 4.27295 9.52615 4.27295C7.0237 4.27295 4.9877 6.31575 4.9877 8.82657C4.9877 11.3374 7.0237 13.3802 9.52615 13.3802ZM9.52615 5.28486C11.4726 5.28486 13.0561 6.87362 13.0561 8.82657C13.0561 10.7795 11.4726 12.3683 9.52615 12.3683C7.57971 12.3683 5.99625 10.7795 5.99625 8.82657C5.99625 6.87362 7.57971 5.28486 9.52615 5.28486Z" fill="white"/>
<path d="M14.2823 5.0392C15.1065 5.0392 15.7771 4.36639 15.7771 3.53944C15.7771 2.71248 15.1065 2.03967 14.2823 2.03967C13.4581 2.03967 12.7876 2.71248 12.7876 3.53944C12.7876 4.36639 13.4581 5.0392 14.2823 5.0392ZM14.2823 3.03952C14.557 3.03952 14.7806 3.26383 14.7806 3.53944C14.7806 3.81505 14.557 4.03936 14.2823 4.03936C14.0077 4.03936 13.7841 3.81505 13.7841 3.53944C13.7841 3.26383 14.0077 3.03952 14.2823 3.03952Z" fill="white"/>
</svg>
