<svg width="53" height="51" viewBox="0 0 53 51" fill="none" xmlns="http://www.w3.org/2000/svg">
<path d="M51.9427 12.0826C51.7637 11.4297 51.3271 10.8732 50.7296 10.5358C50.1317 10.1967 49.4208 10.1049 48.7539 10.2805C48.0879 10.4565 47.5205 10.8844 47.1765 11.4704L46.7432 12.21C46.3314 11.978 45.8055 12.1146 45.5647 12.5163L43.3635 16.1965L42.6095 15.7715C42.4097 15.6582 42.1719 15.6275 41.9494 15.6864C41.7264 15.7457 41.5368 15.8893 41.4221 16.0861C41.1873 16.4924 41.3303 17.0087 41.7429 17.242L42.4969 17.667L35.1309 30.1874L33.3109 34.9562L32.4443 36.5454C31.937 37.4112 31.9911 38.4874 32.5831 39.2996L30.6333 41.6454L30.0874 40.3028C29.8411 39.7043 29.2712 39.2942 28.6157 39.244C27.9599 39.1934 27.3315 39.5113 26.9934 40.0645L26.6815 40.5829L26.387 37.1829C26.3193 36.3786 25.6842 35.7319 24.8675 35.6348C24.0504 35.5381 23.2769 36.0183 23.0159 36.7837L20.8841 43.0565C20.7351 43.5002 20.9788 43.9784 21.4299 44.1278C21.5145 44.1664 21.6055 44.1896 21.6986 44.1954C22.071 44.1967 22.4027 43.9638 22.522 43.6177L24.645 37.3448L24.9483 40.7954C25.011 41.5317 25.5505 42.1439 26.2842 42.3107C27.0179 42.4776 27.7771 42.1605 28.1634 41.5267L28.4841 41.0079L29.0215 42.3427C29.2496 42.9051 29.7654 43.3064 30.376 43.3956C30.9866 43.4849 31.5993 43.2487 31.9852 42.776L34.0044 40.2687C34.2279 40.326 34.4581 40.3546 34.6891 40.3538C35.6179 40.3609 36.4803 39.8811 36.9508 39.0954L37.8174 37.676L41.1192 33.7406L48.5631 21.067L49.3171 21.492C49.5181 21.6048 49.6645 21.7912 49.7242 22.0108C49.7843 22.2286 49.753 22.4611 49.6379 22.6566L46.1715 28.5472C46.0407 28.7406 45.9963 28.978 46.0488 29.2046C46.1012 29.4308 46.2455 29.6263 46.4486 29.7454C46.6484 29.8591 46.8862 29.8899 47.1087 29.8309C47.3317 29.7716 47.5213 29.628 47.636 29.4312L51.1024 23.5406C51.4481 22.9541 51.5416 22.2569 51.3622 21.6028C51.1828 20.9495 50.7465 20.3929 50.149 20.0555L49.395 19.6305L51.5615 15.9499C51.798 15.5461 51.6588 15.0306 51.2496 14.7941L51.6829 14.0545C52.0379 13.4589 52.1319 12.7475 51.9427 12.0826ZM48.6756 12.3204C48.7903 12.1237 48.9807 11.9797 49.2046 11.9212C49.4271 11.8672 49.6624 11.8975 49.863 12.0062C50.064 12.1187 50.2104 12.3055 50.2705 12.5246C50.3255 12.7429 50.2946 12.9737 50.1837 13.1704L49.7504 13.91L48.2423 13.06L48.6756 12.3204ZM36.864 36.0528L36.4307 35.8062L35.1482 35.0749L36.3787 31.8451L39.1084 33.392L36.864 36.0528ZM34.2643 38.509C33.8982 38.2587 33.7857 37.7773 34.0044 37.3954L34.4377 36.6562L35.9454 37.5062L35.5121 38.2371C35.3907 38.4438 35.1867 38.5907 34.9493 38.6426C34.7119 38.6941 34.4636 38.6459 34.2643 38.509ZM40.0964 31.9983L37.098 30.2983L44.0308 18.517L47.0292 20.217L40.0964 31.9983ZM47.8958 18.7465L44.8974 17.0465L46.6306 14.1055L49.629 15.8055L47.8958 18.7465Z" fill="#FFBB01"/>
<path d="M13.7124 38.0886L10.6455 41.0893L8.80841 39.2872C8.47036 38.9577 7.92458 38.9577 7.58653 39.2872C7.42237 39.447 7.33014 39.6641 7.33014 39.8907C7.33014 40.1173 7.42237 40.3348 7.58653 40.4941L9.42359 42.2962C9.74852 42.6125 10.1877 42.7897 10.6455 42.7893C11.1058 42.7918 11.5488 42.6146 11.8758 42.2962L14.9343 39.2872C15.2288 38.9498 15.2089 38.4472 14.8891 38.1334C14.5688 37.8192 14.0564 37.7997 13.7124 38.0886Z" fill="#FFBB01"/>
<path d="M3.50436 40.375C3.50436 44.3656 6.80234 47.6 10.8704 47.6C14.9385 47.6 18.2365 44.3656 18.2365 40.375C18.2365 39.9056 17.8485 39.525 17.3699 39.525C16.8913 39.525 16.5033 39.9056 16.5033 40.375C16.5033 43.4264 13.9814 45.9 10.8704 45.9C7.75949 45.9 5.23756 43.4264 5.23756 40.375C5.23756 37.3237 7.75949 34.85 10.8704 34.85C12.0899 34.8467 13.2768 35.2348 14.2501 35.9553C14.633 36.2371 15.1763 36.1607 15.4632 35.7851C15.7505 35.4095 15.6731 34.877 15.2902 34.5952C13.0581 32.9533 10.0715 32.6893 7.57627 33.9129C5.08057 35.1368 3.50436 37.6387 3.50436 40.375Z" fill="#FFBB01"/>
<path d="M31.2359 6.80004C31.7145 6.80004 32.1025 6.41986 32.1025 5.95004C32.1025 5.48063 31.7145 5.10004 31.2359 5.10004H8.7044C8.22582 5.10004 7.8378 5.48063 7.8378 5.95004V9.35004C7.8378 9.81986 8.22582 10.2 8.7044 10.2H31.2359C31.7145 10.2 32.1025 9.81986 32.1025 9.35004C32.1025 8.88063 31.7145 8.50004 31.2359 8.50004H9.57099V6.80004H31.2359Z" fill="#FFBB01"/>
<path d="M11.3042 11.9001C10.8257 11.9001 10.4377 12.2807 10.4377 12.7501C10.4377 13.2199 10.8257 13.6001 11.3042 13.6001H28.6362C29.1148 13.6001 29.5028 13.2199 29.5028 12.7501C29.5028 12.2807 29.1148 11.9001 28.6362 11.9001H11.3042Z" fill="#FFBB01"/>
<path d="M33.8358 17.85H14.7707C14.2921 17.85 13.9041 18.2306 13.9041 18.7C13.9041 19.1698 14.2921 19.55 14.7707 19.55H33.8358C34.3144 19.55 34.7024 19.1698 34.7024 18.7C34.7024 18.2306 34.3144 17.85 33.8358 17.85Z" fill="#FFBB01"/>
<path d="M25.1689 23.8001C25.1689 23.3307 24.7809 22.9501 24.3023 22.9501H6.97039C6.49181 22.9501 6.10379 23.3307 6.10379 23.8001C6.10379 24.2699 6.49181 24.6501 6.97039 24.6501H24.3023C24.7809 24.6501 25.1689 24.2699 25.1689 23.8001Z" fill="#FFBB01"/>
<path d="M33.8349 22.9501H27.7694C27.2909 22.9501 26.903 23.3307 26.903 23.8001C26.903 24.2699 27.2909 24.6501 27.7694 24.6501H33.8349C34.3134 24.6501 34.7013 24.2699 34.7013 23.8001C34.7013 23.3307 34.3134 22.9501 33.8349 22.9501Z" fill="#FFBB01"/>
<path d="M15.6363 28.9001C16.1149 28.9001 16.5029 28.5199 16.5029 28.0501C16.5029 27.5807 16.1149 27.2001 15.6363 27.2001H6.97039C6.49181 27.2001 6.10379 27.5807 6.10379 28.0501C6.10379 28.5199 6.49181 28.9001 6.97039 28.9001H15.6363Z" fill="#FFBB01"/>
<path d="M19.1035 28.9001H25.1689C25.6474 28.9001 26.0354 28.5199 26.0354 28.0501C26.0354 27.5807 25.6474 27.2001 25.1689 27.2001H19.1035C18.6249 27.2001 18.237 27.5807 18.237 28.0501C18.237 28.5199 18.6249 28.9001 19.1035 28.9001Z" fill="#FFBB01"/>
<path d="M39.0352 39.1001C38.5566 39.1001 38.1686 39.4807 38.1686 39.9501V48.4501C38.1686 48.9199 37.7806 49.3001 37.302 49.3001H2.63815C2.15957 49.3001 1.77155 48.9199 1.77155 48.4501V2.55006C1.77155 2.08065 2.15957 1.70006 2.63815 1.70006H37.302C37.7806 1.70006 38.1686 2.08065 38.1686 2.55006V18.5133C38.1686 18.9827 38.5566 19.3633 39.0352 19.3633C39.5138 19.3633 39.9018 18.9827 39.9018 18.5133V2.55006C39.9018 1.14183 38.7377 6.10352e-05 37.302 6.10352e-05H2.63815C1.20243 6.10352e-05 0.0383606 1.14183 0.0383606 2.55006V48.4501C0.0383606 49.8587 1.20243 51.0001 2.63815 51.0001H37.302C38.7377 51.0001 39.9018 49.8587 39.9018 48.4501V39.9501C39.9018 39.4807 39.5138 39.1001 39.0352 39.1001Z" fill="#FFBB01"/>
</svg>
