<svg width="53" height="51" viewBox="0 0 53 51" fill="none" xmlns="http://www.w3.org/2000/svg">
<path d="M50.2993 36.3461V33.9999H51.1659C51.4049 34.0015 51.6338 33.9061 51.7984 33.7363C51.9457 33.5749 52.029 33.3665 52.0324 33.1499L50.4812 4.24999C50.3336 1.91084 48.3559 0.0875854 45.9665 0.0875854C43.5771 0.0875854 41.5994 1.91084 41.4517 4.24999L39.9005 33.1499C39.8933 33.3815 39.9771 33.6064 40.1345 33.7791C40.3063 33.933 40.5344 34.0127 40.7671 33.9999H41.6336V36.3461L39.9957 39.5676C39.8722 39.8079 39.8722 40.0918 39.9957 40.3325L45.1951 50.5325C45.2374 50.6263 45.2996 50.7101 45.3771 50.779C45.4782 50.8707 45.6 50.938 45.7325 50.9745H46.2089C46.3418 50.938 46.4636 50.8707 46.5644 50.779C46.6422 50.7101 46.704 50.6263 46.7463 50.5325L51.9457 40.3325C52.0692 40.0918 52.0692 39.8079 51.9457 39.5676L50.2993 36.3461ZM41.6768 32.2999L42.0411 25.4999H49.8918L50.2993 32.2999H41.6768ZM43.1848 4.29274C43.1848 2.78574 44.4301 1.56387 45.9665 1.56387C47.5028 1.56387 48.7481 2.78574 48.7481 4.29274L49.7966 23.8427H42.1363L42.2315 22.1427H47.0581C47.5371 22.1427 47.9247 21.7621 47.9247 21.2927C47.9247 20.8228 47.5371 20.4427 47.0581 20.4427H42.3183L43.1848 4.29274ZM48.5662 33.9999V35.6999H43.3668V33.9999H48.5662ZM46.833 46.546V40.7998H47.6996C48.1782 40.7998 48.5662 40.4192 48.5662 39.9498C48.5662 39.4804 48.1782 39.0998 47.6996 39.0998H44.2333C43.7548 39.0998 43.3668 39.4804 43.3668 39.9498C43.3668 40.4192 43.7548 40.7998 44.2333 40.7998H45.0999V46.546L41.7377 39.9498L43.0376 37.3999H48.8954L50.1952 39.9498L46.833 46.546Z" fill="#FFBB01"/>
<path d="M29.5009 11.05C29.9794 11.05 30.3674 10.6694 30.3674 10.2C30.3674 9.73059 29.9794 9.35001 29.5009 9.35001H6.97017C6.49162 9.35001 6.10361 9.73059 6.10361 10.2V13.6C6.10361 14.0694 6.49162 14.45 6.97017 14.45H29.5009C29.9794 14.45 30.3674 14.0694 30.3674 13.6C30.3674 13.1306 29.9794 12.75 29.5009 12.75H7.83674V11.05H29.5009Z" fill="#FFBB01"/>
<path d="M30.3683 18.6999C30.3683 18.2305 29.9803 17.8499 29.5018 17.8499H10.4373C9.95875 17.8499 9.57074 18.2305 9.57074 18.6999C9.57074 19.1693 9.95875 19.5499 10.4373 19.5499H29.5018C29.9803 19.5499 30.3683 19.1693 30.3683 18.6999Z" fill="#FFBB01"/>
<path d="M5.23715 22.9499C5.23715 23.4193 5.62516 23.7999 6.10372 23.7999H19.9688C20.4473 23.7999 20.8353 23.4193 20.8353 22.9499C20.8353 22.4805 20.4473 22.0999 19.9688 22.0999H6.10372C5.62516 22.0999 5.23715 22.4805 5.23715 22.9499Z" fill="#FFBB01"/>
<path d="M25.1689 22.0999C24.6904 22.0999 24.3024 22.4805 24.3024 22.9499C24.3024 23.4193 24.6904 23.7999 25.1689 23.7999H28.6347C29.1132 23.7999 29.5012 23.4193 29.5012 22.9499C29.5012 22.4805 29.1132 22.0999 28.6347 22.0999H25.1689Z" fill="#FFBB01"/>
<path d="M17.3691 27.1998C17.3691 26.7304 16.9811 26.3499 16.5025 26.3499H6.10372C5.62516 26.3499 5.23715 26.7304 5.23715 27.1998C5.23715 27.6692 5.62516 28.0498 6.10372 28.0498H16.5025C16.9811 28.0498 17.3691 27.6692 17.3691 27.1998Z" fill="#FFBB01"/>
<path d="M16.5025 31.4499C16.5025 30.9805 16.1145 30.5999 15.6359 30.5999H6.10372C5.62516 30.5999 5.23715 30.9805 5.23715 31.4499C5.23715 31.9193 5.62516 32.2999 6.10372 32.2999H15.6359C16.1145 32.2999 16.5025 31.9193 16.5025 31.4499Z" fill="#FFBB01"/>
<path d="M6.10361 34.8499C5.62511 34.8499 5.23715 35.2305 5.23715 35.6999C5.23715 36.1693 5.62511 36.5499 6.10361 36.5499H12.1688C12.6473 36.5499 13.0353 36.1693 13.0353 35.6999C13.0353 35.2305 12.6473 34.8499 12.1688 34.8499H6.10361Z" fill="#FFBB01"/>
<path d="M33.8344 0H2.63806C1.20239 0 0.0383606 1.14177 0.0383606 2.54999V41.6498C0.0383606 43.058 1.20239 44.1998 2.63806 44.1998H17.3697C17.8482 44.1998 18.2362 43.8192 18.2362 43.3498C18.2362 42.8804 17.8482 42.4998 17.3697 42.4998H2.63806C2.1595 42.4998 1.77149 42.1192 1.77149 41.6498V7.64997H34.701V41.6498C34.701 42.1192 34.313 42.4998 33.8344 42.4998H31.2347C30.7562 42.4998 30.3682 42.8804 30.3682 43.3498C30.3682 43.8192 30.7562 44.1998 31.2347 44.1998H33.8344C35.2701 44.1998 36.4341 43.058 36.4341 41.6498V2.54999C36.4341 1.14177 35.2701 0 33.8344 0ZM1.77149 5.94997V2.54999C1.77149 2.08058 2.1595 1.69999 2.63806 1.69999H33.8344C34.313 1.69999 34.701 2.08058 34.701 2.54999V5.94997H1.77149Z" fill="#FFBB01"/>
<path d="M24.302 31.4498C22.8665 31.4498 21.7026 32.5916 21.7026 33.9998C21.7026 35.408 22.8665 36.5498 24.302 36.5498C25.7375 36.5498 26.9013 35.408 26.9013 33.9998C26.9013 32.5916 25.7375 31.4498 24.302 31.4498ZM24.302 34.8498C23.8235 34.8498 23.4355 34.4692 23.4355 33.9998C23.4355 33.5304 23.8235 33.1498 24.302 33.1498C24.7805 33.1498 25.1684 33.5304 25.1684 33.9998C25.1684 34.4692 24.7805 34.8498 24.302 34.8498Z" fill="#FFBB01"/>
<path d="M31.2348 33.9998C31.2336 33.0552 30.7004 32.1882 29.8482 31.7474C30.1317 30.8443 29.8829 29.8619 29.2021 29.1937C28.5209 28.5259 27.5193 28.2818 26.5986 28.5599C26.1476 27.7265 25.2645 27.2052 24.3023 27.2052C23.3401 27.2052 22.457 27.7265 22.006 28.5599C21.0853 28.2818 20.0837 28.5259 19.4025 29.1937C18.7217 29.8619 18.4729 30.8443 18.7564 31.7474C17.9063 32.1898 17.3753 33.056 17.3753 33.9998C17.3753 34.9436 17.9063 35.8102 18.7564 36.2522C18.4729 37.1533 18.7196 38.134 19.3974 38.8022C19.5667 38.9678 19.7592 39.1081 19.9695 39.2189V50.1497C19.9712 50.493 20.1832 50.8014 20.5068 50.9317C20.8293 51.0649 21.202 50.9944 21.4513 50.7532L24.3023 47.9484L27.1533 50.7532C27.3167 50.9126 27.5384 51.001 27.7686 50.9997C27.8824 51.0027 27.9949 50.9794 28.0978 50.9317C28.4215 50.8014 28.6334 50.493 28.6351 50.1497V39.2272C28.8454 39.1164 29.038 38.9761 29.2072 38.8109C29.8851 38.1423 30.1317 37.162 29.8482 36.2609C30.703 35.8185 31.2369 34.9478 31.2348 33.9998ZM24.9175 46.1463C24.7551 45.9853 24.5333 45.8948 24.3023 45.8948C24.0713 45.8948 23.8496 45.9853 23.6871 46.1463L21.7026 48.1011V39.5165L22.006 39.4397C22.457 40.2735 23.3401 40.7944 24.3023 40.7944C25.2645 40.7944 26.1476 40.2735 26.5986 39.4397L26.902 39.5165V48.1011L24.9175 46.1463ZM28.6351 34.8498H28.4879C28.135 34.8481 27.816 35.0565 27.6818 35.3769C27.5485 35.6952 27.6239 36.0609 27.8727 36.3033L27.9767 36.4054C28.3127 36.737 28.3127 37.2724 27.9767 37.604C27.8811 37.7024 27.7618 37.7754 27.6298 37.8165H27.4999C27.227 37.858 26.9502 37.7696 26.7548 37.5783L26.6507 37.4762C26.4027 37.2313 26.0282 37.1574 25.7033 37.2898C25.3779 37.4222 25.1668 37.7347 25.1689 38.08V38.2498C25.1689 38.7192 24.7809 39.0998 24.3023 39.0998C23.8237 39.0998 23.4357 38.7192 23.4357 38.2498V38.1054C23.4374 37.7592 23.225 37.4463 22.8984 37.3147C22.7939 37.274 22.6817 37.2541 22.5692 37.2554C22.339 37.2541 22.1173 37.3429 21.9539 37.5019L21.8499 37.604C21.6544 37.7953 21.3776 37.8837 21.1047 37.8418H20.9748C20.8428 37.8011 20.7235 37.7281 20.6279 37.6293C20.2919 37.2977 20.2919 36.7623 20.6279 36.4307L20.7408 36.329C20.9896 36.0862 21.065 35.7206 20.9312 35.4022C20.7971 35.0822 20.4785 34.8735 20.1256 34.8755H19.9695C19.4909 34.8755 19.1029 34.4949 19.1029 34.0255C19.1029 33.5557 19.4909 33.1755 19.9695 33.1755H20.1167C20.4696 33.1772 20.7886 32.9684 20.9228 32.6484C21.0561 32.3301 20.9807 31.9645 20.7319 31.7217L20.6279 31.62C20.2881 31.2888 20.2864 30.7505 20.6236 30.4172C20.9613 30.0839 21.5101 30.0819 21.8499 30.4131L21.9539 30.5235C22.201 30.7675 22.5742 30.8414 22.8984 30.7102C23.225 30.5787 23.4374 30.2661 23.4357 29.92V29.7498C23.4357 29.2804 23.8237 28.8998 24.3023 28.8998C24.7809 28.8998 25.1689 29.2804 25.1689 29.7498V29.8943C25.1672 30.2408 25.3796 30.5533 25.7062 30.6849C26.0304 30.8156 26.4036 30.7422 26.6507 30.4977L26.7548 30.396C27.092 30.0628 27.6412 30.0607 27.981 30.3915C28.3208 30.7227 28.3224 31.261 27.9852 31.5943L27.8727 31.6964C27.6239 31.9387 27.5485 32.3048 27.6818 32.6227C27.816 32.9431 28.135 33.1515 28.4879 33.1498H28.6351C29.1137 33.1498 29.5017 33.5304 29.5017 33.9998C29.5017 34.4692 29.1137 34.8498 28.6351 34.8498Z" fill="#FFBB01"/>
</svg>
