<svg width="18" height="16" viewBox="0 0 18 16" fill="none" xmlns="http://www.w3.org/2000/svg">
<path d="M17.2648 2.86704C16.1821 2.91713 16.2057 2.91304 16.0833 2.92332L16.7245 1.08526C16.7245 1.08526 14.7229 1.82431 14.2155 1.95651C12.8829 0.754288 10.902 0.701169 9.48586 1.57479C8.32616 2.29038 7.7037 3.51923 7.91132 4.95554C5.6543 4.64118 3.75264 3.56734 2.25125 1.75708L1.77639 1.18464L1.42156 1.83867C0.9731 2.66511 0.824182 3.61005 1.00212 4.49936C1.07514 4.8642 1.19924 5.21218 1.37113 5.53801L0.963777 5.37957L0.91545 6.06273C0.866468 6.7567 1.09667 7.5668 1.53135 8.22953C1.65374 8.41617 1.81132 8.62113 2.01106 8.82333L1.80055 8.7909L2.05742 9.57371C2.39505 10.6022 3.0963 11.3979 4.00636 11.8403C3.09748 12.2274 2.36327 12.4744 1.15642 12.8729L0.0522766 13.2372L1.07212 13.7968C1.46096 14.0102 2.83497 14.7229 4.19257 14.9367C7.21033 15.4118 10.608 15.0249 12.8954 12.9572C14.822 11.2156 15.4541 8.73831 15.3228 6.16027C15.303 5.76999 15.4095 5.3975 15.6228 5.11161C16.0499 4.53916 17.2622 2.87086 17.2648 2.86704ZM14.8163 4.50529C14.4621 4.97993 14.2847 5.58612 14.3165 6.21194C14.449 8.81239 13.7441 10.8291 12.2211 12.2057C10.4421 13.8139 7.57264 14.4451 4.34871 13.9375C3.76486 13.8456 3.16144 13.6399 2.66202 13.4344C3.67385 13.085 4.45521 12.7735 5.71708 12.174L7.47862 11.3372L5.53375 11.2122C4.60216 11.1524 3.82645 10.6992 3.34962 9.96347C3.60281 9.94871 3.84693 9.90758 4.09001 9.83957L5.94492 9.32104L4.07451 8.86129C3.16564 8.63787 2.64758 8.09205 2.37298 7.67343C2.19268 7.39835 2.07488 7.11654 2.00423 6.85675C2.19176 6.90723 2.41041 6.94321 2.76301 6.97827L4.49421 7.15015L3.12256 6.07618C2.13424 5.30246 1.73818 4.14005 2.02853 3.02258C5.113 6.23369 8.73457 5.99235 9.09912 6.07723C9.01888 5.29495 9.01678 5.29311 8.99577 5.21863C8.52892 3.5622 9.55205 2.72113 10.0135 2.43642C10.9774 1.84184 12.5074 1.75221 13.5672 2.73181C13.7961 2.94323 14.1056 3.0264 14.3953 2.95417C14.6553 2.88932 14.8687 2.82065 15.0776 2.74591L14.6427 3.99255L15.1979 3.99295C15.0931 4.13398 14.9675 4.30283 14.8163 4.50529Z" fill="white"/>
</svg>
