<svg width="16" height="18" viewBox="0 0 16 18" fill="none" xmlns="http://www.w3.org/2000/svg">
<path d="M7.93183 9.69894C7.9513 9.69894 7.97078 9.69894 7.99415 9.69894C8.00194 9.69894 8.00973 9.69894 8.01752 9.69894C8.02921 9.69894 8.04479 9.69894 8.05648 9.69894C9.19779 9.6803 10.121 9.29637 10.8026 8.56205C12.3023 6.94432 12.053 4.17106 12.0258 3.90641C11.9284 1.91966 10.9468 0.969148 10.1365 0.525577C9.53278 0.19383 8.82774 0.01491 8.04089 0H8.01363C8.00973 0 8.00194 0 7.99805 0H7.97468C7.5423 0 6.69313 0.0670949 5.87902 0.510667C5.06102 0.954238 4.06383 1.90475 3.96645 3.90641C3.93918 4.17106 3.68988 6.94432 5.18956 8.56205C5.86734 9.29637 6.79051 9.6803 7.93183 9.69894ZM5.00648 3.9996C5.00648 3.98842 5.01038 3.97724 5.01038 3.96978C5.13892 1.29717 7.12161 1.01015 7.97078 1.01015H7.98636C7.99415 1.01015 8.00584 1.01015 8.01752 1.01015C9.06924 1.03252 10.8572 1.44254 10.9779 3.96978C10.9779 3.98096 10.9779 3.99215 10.9818 3.9996C10.9857 4.02569 11.2584 6.56039 10.0197 7.89483C9.52889 8.42413 8.87448 8.68506 8.01363 8.69251C8.00584 8.69251 8.00194 8.69251 7.99415 8.69251C7.98636 8.69251 7.98247 8.69251 7.97468 8.69251C7.11772 8.68506 6.45942 8.42413 5.97251 7.89483C4.73771 6.56784 5.00259 4.02197 5.00648 3.9996Z" fill="#949494"/>
<path d="M15.9989 14.2986C15.9989 14.2949 15.9989 14.2912 15.9989 14.2874C15.9989 14.2576 15.995 14.2278 15.995 14.1943C15.9716 13.4562 15.921 11.7304 14.2305 11.1787C14.2188 11.175 14.2032 11.1713 14.1915 11.1675C12.4347 10.7389 10.974 9.76972 10.9584 9.75854C10.7208 9.59826 10.3936 9.65417 10.2261 9.88155C10.0586 10.1089 10.1171 10.422 10.3547 10.5823C10.4209 10.627 11.9712 11.6596 13.911 12.1367C14.8186 12.4461 14.9199 13.3742 14.9472 14.2241C14.9472 14.2576 14.9472 14.2874 14.9511 14.3173C14.955 14.6527 14.9316 15.1709 14.8693 15.4691C14.2382 15.812 11.7648 16.9973 8.00193 16.9973C4.25469 16.9973 1.76561 15.8083 1.13069 15.4653C1.06836 15.1671 1.0411 14.649 1.04889 14.3135C1.04889 14.2837 1.05278 14.2539 1.05278 14.2203C1.08005 13.3705 1.18133 12.4423 2.08892 12.133C4.02876 11.6558 5.57908 10.6196 5.6453 10.5786C5.88291 10.4183 5.94134 10.1052 5.77384 9.87782C5.60635 9.65044 5.27914 9.59453 5.04153 9.75481C5.02595 9.76599 3.57302 10.7351 1.80846 11.1638C1.79288 11.1675 1.7812 11.1713 1.76951 11.175C0.0789655 11.7304 0.0283271 13.4562 0.00495551 14.1905C0.00495551 14.2241 0.00495542 14.2539 0.00106015 14.2837C0.00106015 14.2874 0.00106015 14.2912 0.00106015 14.2949C-0.00283511 14.4887 -0.00673029 15.484 0.199719 15.9835C0.238671 16.0804 0.308786 16.1624 0.402272 16.2183C0.51913 16.2928 3.31983 18 8.00583 18C12.6918 18 15.4925 16.2891 15.6094 16.2183C15.699 16.1624 15.773 16.0804 15.8119 15.9835C16.0067 15.4877 16.0028 14.4925 15.9989 14.2986Z" fill="#949494"/>
</svg>
